<?xml version="1.0" encoding="UTF-8"?>
<svg version="1.1" xmlns="http://www.w3.org/2000/svg" width="512" height="512">
<path d="M0 0 C1.45108658 0.00273422 1.45108658 0.00273422 2.93148804 0.00552368 C17.26440977 0.05095174 31.21023917 0.55983928 45.3125 3.3125 C46.65803955 3.55395752 46.65803955 3.55395752 48.03076172 3.80029297 C107.84088904 14.62287989 165.35495829 48.68064457 202.3125 97.3125 C202.72918945 97.85277832 203.14587891 98.39305664 203.57519531 98.94970703 C211.2584873 108.9447116 218.00092968 119.40459036 224.3125 130.3125 C224.70679199 130.98974121 225.10108398 131.66698242 225.50732422 132.36474609 C238.68961173 155.2833756 247.29510918 180.85822563 252.625 206.6875 C252.77243652 207.39817627 252.91987305 208.10885254 253.07177734 208.84106445 C256.05713787 224.48358366 256.6873098 240.11919606 256.625 256 C256.62226578 257.45108658 256.62226578 257.45108658 256.61947632 258.93148804 C256.57404826 273.26440977 256.06516072 287.21023917 253.3125 301.3125 C253.15152832 302.20952637 252.99055664 303.10655273 252.82470703 304.03076172 C242.00212011 363.84088904 207.94435543 421.35495829 159.3125 458.3125 C158.77222168 458.72918945 158.23194336 459.14587891 157.67529297 459.57519531 C147.6802884 467.2584873 137.22040964 474.00092968 126.3125 480.3125 C125.63525879 480.70679199 124.95801758 481.10108398 124.26025391 481.50732422 C101.3416244 494.68961173 75.76677437 503.29510918 49.9375 508.625 C49.22682373 508.77243652 48.51614746 508.91987305 47.78393555 509.07177734 C32.14141634 512.05713787 16.50580394 512.6873098 0.625 512.625 C-0.34239105 512.62317719 -1.3097821 512.62135437 -2.30648804 512.61947632 C-16.63940977 512.57404826 -30.58523917 512.06516072 -44.6875 509.3125 C-45.58452637 509.15152832 -46.48155273 508.99055664 -47.40576172 508.82470703 C-107.21588904 498.00212011 -164.72995829 463.94435543 -201.6875 415.3125 C-202.10418945 414.77222168 -202.52087891 414.23194336 -202.95019531 413.67529297 C-210.6334873 403.6802884 -217.37592968 393.22040964 -223.6875 382.3125 C-224.08179199 381.63525879 -224.47608398 380.95801758 -224.88232422 380.26025391 C-238.06461173 357.3416244 -246.67010918 331.76677437 -252 305.9375 C-252.14743652 305.22682373 -252.29487305 304.51614746 -252.44677734 303.78393555 C-255.43213787 288.14141634 -256.0623098 272.50580394 -256 256.625 C-255.99817719 255.65760895 -255.99635437 254.6902179 -255.99447632 253.69351196 C-255.94904826 239.36059023 -255.44016072 225.41476083 -252.6875 211.3125 C-252.44604248 209.96696045 -252.44604248 209.96696045 -252.19970703 208.59423828 C-241.37712011 148.78411096 -207.31935543 91.27004171 -158.6875 54.3125 C-158.14722168 53.89581055 -157.60694336 53.47912109 -157.05029297 53.04980469 C-147.0552884 45.3665127 -136.59540964 38.62407032 -125.6875 32.3125 C-125.01025879 31.91820801 -124.33301758 31.52391602 -123.63525391 31.11767578 C-100.7166244 17.93538827 -75.14177437 9.32989082 -49.3125 4 C-48.60182373 3.85256348 -47.89114746 3.70512695 -47.15893555 3.55322266 C-31.51641634 0.56786213 -15.88080394 -0.0623098 0 0 Z " fill="#A4CCFE" transform="translate(255.6875,-0.3125)"/>
<path d="M0 0 C4.80289861 3.60684176 9.36905196 7.45691717 13.84228516 11.46289062 C14.3640332 11.92808105 14.88578125 12.39327148 15.42333984 12.87255859 C40.43704494 35.55728717 56.00795239 69.74061814 57.75701904 103.28625488 C58.05126215 110.79756315 57.94139458 118.32259798 57.90478516 125.83789062 C57.89975582 127.65299355 57.89519547 129.46809783 57.89111328 131.28320312 C57.88023113 135.6764667 57.8630471 140.06966309 57.84228516 144.46289062 C56.19228516 144.46289062 54.54228516 144.46289062 52.84228516 144.46289062 C52.84505054 145.02535995 52.84781591 145.58782928 52.85066509 146.16734314 C52.91724844 159.92581451 52.96652952 173.68425722 52.99772167 187.44285583 C53.01331761 194.09673947 53.034444 200.75047475 53.06860352 207.40429688 C53.10141457 213.83636614 53.11918375 220.26832342 53.12691689 226.70046997 C53.13242158 229.14342 53.14316985 231.58636454 53.15947533 234.02926636 C53.26340173 250.25830666 52.86172481 265.68054987 47.15478516 281.08789062 C46.89914795 281.7875293 46.64351074 282.48716797 46.38012695 283.20800781 C40.38002708 298.98174281 30.2804751 313.14194163 16.84228516 323.46289062 C16.10880859 324.03265625 15.37533203 324.60242188 14.61962891 325.18945312 C-6.6420171 340.88504221 -29.93213824 344.95841926 -55.72412109 344.86132812 C-57.65689707 344.86335668 -59.58967228 344.86627455 -61.52244568 344.87002563 C-65.54376622 344.87441124 -69.56488485 344.86814013 -73.58618164 344.85400391 C-78.69493191 344.83690281 -83.80320942 344.84678339 -88.91194248 344.8647213 C-92.8938085 344.87565194 -96.87556562 344.87207085 -100.85743523 344.86433792 C-102.7393595 344.86236205 -104.62129424 344.8647012 -106.50320625 344.87177658 C-137.39619304 344.96250015 -163.34520071 336.04425876 -185.50146484 314.14648438 C-202.92196695 295.41944461 -211.56593591 270.11923365 -211.38476562 244.81933594 C-211.38505768 243.72518372 -211.38534973 242.63103149 -211.38565063 241.50372314 C-211.38427139 237.93273635 -211.36877704 234.3619654 -211.35302734 230.79101562 C-211.34929221 228.29709995 -211.3464476 225.80318281 -211.3444519 223.30926514 C-211.33685486 216.77945834 -211.31724045 210.24974202 -211.29504395 203.7199707 C-211.27340266 197.0431494 -211.26543208 190.36629974 -211.25537109 183.68945312 C-211.23399058 170.61389393 -211.20029286 157.53839711 -211.15771484 144.46289062 C-212.80771484 144.46289062 -214.45771484 144.46289062 -216.15771484 144.46289062 C-216.23486833 138.08072819 -216.28676799 131.69868935 -216.32250977 125.31616211 C-216.3374368 123.15270495 -216.35778577 120.98927717 -216.3840332 118.82592773 C-216.58314194 101.97195897 -215.66749116 86.28265528 -210.15771484 70.21289062 C-209.8621167 69.34575439 -209.56651855 68.47861816 -209.26196289 67.58520508 C-196.11377158 30.72846593 -169.57521853 3.26405504 -134.55566406 -13.46191406 C-123.58577485 -18.38060599 -111.96168016 -21.41178401 -100.15771484 -23.53710938 C-99.23031494 -23.70766846 -98.30291504 -23.87822754 -97.34741211 -24.05395508 C-63.80035381 -29.13544213 -27.53347338 -19.61425078 0 0 Z " fill="#67535D" transform="translate(335.15771484375,24.537109375)"/>
<path d="M0 0 C0 0.33 0 0.66 0 1 C-0.95777344 1.15855469 -1.91554687 1.31710938 -2.90234375 1.48046875 C-25.73275229 5.40693917 -47.28685594 12.97232826 -66 27 C-66.80824219 27.5878125 -67.61648437 28.175625 -68.44921875 28.78125 C-90.44645939 45.50056978 -106.04832846 68.55699884 -114.9375 94.625 C-115.20788086 95.41028076 -115.47826172 96.19556152 -115.75683594 97.00463867 C-120.97317687 113.31644749 -121.50734739 129.57760794 -121.6875 146.5625 C-121.72075974 148.74936826 -121.75525698 150.93621805 -121.79101562 153.12304688 C-121.87490974 158.41523717 -121.94365973 163.70744827 -122 169 C-120.35 169 -118.7 169 -117 169 C-116.99761165 169.56246933 -116.99522329 170.12493866 -116.99276257 170.70445251 C-116.93333112 184.4630763 -116.85742182 198.22152696 -116.76428509 211.97996521 C-116.71972918 218.63377405 -116.68044107 225.28749535 -116.65356445 231.94140625 C-116.62738342 238.37358815 -116.58687788 244.80554058 -116.53681374 251.23757935 C-116.52024457 253.68048224 -116.50866882 256.12342473 -116.50238609 258.56637573 C-116.45659851 274.7469881 -116.00116316 290.26700131 -110.3125 305.625 C-110.05686279 306.32463867 -109.80122559 307.02427734 -109.5378418 307.74511719 C-100.59107558 331.26537889 -82.82820373 349.53835347 -60 360 C-42.7248411 367.11961649 -26.32906879 368.29093249 -7.828125 368.1953125 C-5.69293348 368.19157605 -3.55774024 368.18873207 -1.42254639 368.18673706 C4.16032763 368.17915034 9.74309533 368.15954515 15.32592773 368.1373291 C21.03758303 368.11676307 26.74925574 368.10771247 32.4609375 368.09765625 C43.64067136 368.07629401 54.82032679 368.04221888 66 368 C65.69398491 369.60250814 65.38396874 371.20425258 65.07226562 372.80566406 C64.90005493 373.69771545 64.72784424 374.58976685 64.55041504 375.5088501 C59.00559555 400.60441536 31.60272438 422.75090285 14.2578125 439.67578125 C11.44797456 442.56826148 8.85166177 445.6084225 6.25 448.6875 C5.1891901 449.92481194 4.12798892 451.16178852 3.06640625 452.3984375 C1.17203733 454.61196321 -0.69482266 456.84300481 -2.53515625 459.1015625 C-8.74117778 466.48917646 -8.74117778 466.48917646 -12.75 467.4375 C-19.19880911 466.56939108 -23.54899695 459.07703732 -27.5 454.25 C-28.11166016 453.50556641 -28.72332031 452.76113281 -29.35351562 451.99414062 C-34.0656991 446.224021 -38.6035597 440.33557432 -43.0925293 434.39111328 C-47.03759813 429.19136749 -51.13755677 424.14140899 -55.3125 419.125 C-73.76887271 396.84301439 -73.76887271 396.84301439 -73.27734375 382.765625 C-72.59289811 375.94044873 -71.05830681 370.82221566 -66.37890625 365.69921875 C-65.74670166 365.00014404 -65.11449707 364.30106934 -64.46313477 363.58081055 C-63.98030029 363.05914307 -63.49746582 362.53747559 -63 362 C-70.32409405 361.89708041 -77.64799631 361.8279104 -84.97265625 361.78027344 C-87.45514899 361.76037755 -89.93759627 361.73325104 -92.41992188 361.69824219 C-124.24015695 361.26129227 -150.53467831 366.31409671 -174.16796875 389.05859375 C-180.36812689 395.30082965 -185.16330597 402.69097799 -190 410 C-193.79156281 406.5611407 -196.39092787 402.65435372 -199.125 398.375 C-199.84405518 397.25218628 -199.84405518 397.25218628 -200.57763672 396.10668945 C-217.58044602 369.25499867 -229.67670116 340.55546435 -236.4375 309.4375 C-236.67235107 308.35791016 -236.90720215 307.27832031 -237.14916992 306.16601562 C-240.52891452 289.59888548 -241.37869096 273.18249073 -241.3125 256.3125 C-241.31067719 255.34510895 -241.30885437 254.3777179 -241.30697632 253.38101196 C-241.26154826 239.04809023 -240.75266072 225.10226083 -238 211 C-237.75854248 209.65446045 -237.75854248 209.65446045 -237.51220703 208.28173828 C-226.68962011 148.47161096 -192.63185543 90.95754171 -144 54 C-143.45972168 53.58331055 -142.91944336 53.16662109 -142.36279297 52.73730469 C-132.3677884 45.0540127 -121.90790964 38.31157032 -111 32 C-110.32275879 31.60570801 -109.64551758 31.21141602 -108.94775391 30.80517578 C-77.17316882 12.52913899 -37.01790743 -0.58067306 0 0 Z " fill="#A4CCFE" transform="translate(241,0)"/>
<path d="M0 0 C2.57225775 0.01508037 5.1445241 0.02876282 7.71679688 0.04101562 C13.95722184 0.07374042 20.19731963 0.12367159 26.4375 0.1875 C25.81935425 0.99828003 25.81935425 0.99828003 25.1887207 1.82543945 C24.64820068 2.53917725 24.10768066 3.25291504 23.55078125 3.98828125 C23.01493408 4.69380127 22.47908691 5.39932129 21.92700195 6.1262207 C16.57158589 13.53742835 15.60596258 21.25751116 16.4375 30.1875 C19.40669153 42.53706731 29.25555806 52.27335269 37.15942383 61.78515625 C41.5284281 67.04825791 45.72115225 72.40863583 49.859375 77.85546875 C53.42402178 82.50679442 57.15699524 87.02445436 60.88500977 91.54516602 C63.43421463 94.65179912 65.85286962 97.76026583 68.10546875 101.08984375 C70.19602819 104.47199454 70.19602819 104.47199454 73.9375 105.375 C78.92994953 105.10754735 80.57783044 103.19836221 83.87890625 99.62890625 C86.81183061 96.34261751 89.62389785 92.96216073 92.4140625 89.5546875 C92.94249756 88.91837402 93.47093262 88.28206055 94.01538086 87.62646484 C95.07833911 86.3460137 96.13149549 85.05735415 97.17407227 83.76025391 C98.66796875 81.96875 98.66796875 81.96875 101.4375 79.1875 C105.4375 79.1875 105.4375 79.1875 107.76953125 81.3125 C108.58808594 82.26125 109.40664063 83.21 110.25 84.1875 C110.68723389 84.68789795 111.12446777 85.1882959 111.57495117 85.70385742 C112.8714778 87.19059518 114.15469115 88.68891003 115.4375 90.1875 C116.70735962 91.62586023 117.97805519 93.06348338 119.25 94.5 C120.82619315 96.28561741 122.33525621 98.04602672 123.73046875 99.9765625 C125.95098606 103.00911365 127.33179446 104.15163562 130.9375 105.375 C135.60794946 105.12479735 136.33839034 103.6193082 139.4375 100.1875 C141.48397711 97.8071576 143.4686312 95.38228643 145.4375 92.9375 C146.00218994 92.24003662 146.56687988 91.54257324 147.14868164 90.82397461 C151.69983564 85.17272185 156.10191902 79.41564927 160.47924805 73.62939453 C164.44422693 68.41555172 168.56067377 63.34720848 172.75 58.3125 C186.67669488 42.23716205 186.67669488 42.23716205 190.71484375 21.953125 C189.90169396 13.84453268 187.55576862 8.54108075 181.86328125 2.68359375 C180.4375 1.1875 180.4375 1.1875 180.4375 0.1875 C187.95899802 0.11056548 195.48039224 0.05853457 203.00219727 0.02270508 C205.55366813 0.00774657 208.10511386 -0.01262755 210.65649414 -0.03881836 C241.82773969 -0.35046971 268.55618338 3.90179595 291.87255859 26.58349609 C305.3429461 40.12637812 305.3429461 40.12637812 308.4375 48.1875 C307.48914549 52.37065277 305.13940156 54.92161865 302.25 58 C299.4980413 60.95437948 296.78905064 63.92725275 294.15234375 66.984375 C284.57783115 77.96261617 274.07792106 88.41216148 262.4375 97.1875 C261.90012207 97.60128906 261.36274414 98.01507813 260.80908203 98.44140625 C250.8111221 106.12826589 240.34938153 112.87363145 229.4375 119.1875 C228.76025879 119.58179199 228.08301758 119.97608398 227.38525391 120.38232422 C204.4666244 133.56461173 178.89177437 142.17010918 153.0625 147.5 C151.9964856 147.72115479 151.9964856 147.72115479 150.90893555 147.94677734 C135.26641634 150.93213787 119.63080394 151.5623098 103.75 151.5 C102.78260895 151.49817719 101.8152179 151.49635437 100.81851196 151.49447632 C86.48559023 151.44904826 72.53976083 150.94016072 58.4375 148.1875 C57.54047363 148.02652832 56.64344727 147.86555664 55.71923828 147.69970703 C-4.21879311 136.85397599 -61.42788375 102.78031992 -98.5625 54.1875 C-99.17609375 53.53136719 -99.7896875 52.87523437 -100.421875 52.19921875 C-101.5625 50.1875 -101.5625 50.1875 -100.94140625 47.73046875 C-89.24778902 26.16518599 -68.83785126 10.39889033 -45.5625 3.1875 C-30.53294767 -0.66522561 -15.40398416 -0.15812728 0 0 Z " fill="#FEFEFE" transform="translate(152.5625,360.8125)"/>
<path d="M0 0 C1.92102539 -0.01836914 1.92102539 -0.01836914 3.88085938 -0.03710938 C10.81481833 -0.04781544 16.99554279 0.34119119 23.6875 2.1875 C21.05950484 3.93949677 19.62679825 4.60929909 16.6875 5.37890625 C-8.22928009 12.19206858 -28.99593516 23.89819196 -47.3125 42.1875 C-48.075625 42.93902344 -48.83875 43.69054688 -49.625 44.46484375 C-71.42961028 67.24287413 -81.60431773 96.4644981 -85.3125 127.1875 C-85.50342111 128.71360244 -85.69479932 130.23964779 -85.88671875 131.765625 C-86.02722656 132.89484375 -86.16773438 134.0240625 -86.3125 135.1875 C-87.25609375 135.55101562 -88.1996875 135.91453125 -89.171875 136.2890625 C-107.07310845 142.19293365 -107.07310845 142.19293365 -120.4453125 154.20703125 C-121.71670546 158.57672869 -121.60146457 162.78611581 -121.5625 167.3125 C-121.57023438 168.21871094 -121.57796875 169.12492188 -121.5859375 170.05859375 C-121.58335937 170.92871094 -121.58078125 171.79882812 -121.578125 172.6953125 C-121.57586914 173.48566895 -121.57361328 174.27602539 -121.57128906 175.09033203 C-121.4342583 177.49087079 -121.4342583 177.49087079 -119.3125 180.1875 C-118.3225 180.5175 -117.3325 180.8475 -116.3125 181.1875 C-116.3125 210.8875 -116.3125 240.5875 -116.3125 271.1875 C-39.0925 271.1875 38.1275 271.1875 117.6875 271.1875 C117.6875 241.4875 117.6875 211.7875 117.6875 181.1875 C119.0075 180.5275 120.3275 179.8675 121.6875 179.1875 C122.38926588 176.77070293 122.38926588 176.77070293 122.4375 174.0625 C122.49421875 173.15242187 122.5509375 172.24234375 122.609375 171.3046875 C122.63515625 170.60601562 122.6609375 169.90734375 122.6875 169.1875 C125.6575 169.1875 128.6275 169.1875 131.6875 169.1875 C131.75721138 184.2005812 131.81061843 199.21363762 131.84293652 214.22684669 C131.85834715 221.19913906 131.87932427 228.17132846 131.91381836 235.14355469 C131.94713159 241.88035867 131.96438641 248.61703395 131.97213173 255.3539238 C131.97764683 257.91575166 131.98841601 260.47757412 132.00469017 263.03935623 C132.1616202 288.78139338 132.1616202 288.78139338 128.6875 300.1875 C128.46485474 300.95515182 128.24220947 301.72280365 128.01281738 302.51371765 C120.76733632 325.75974953 104.61797031 345.30489194 83.328125 357.0390625 C64.01369621 367.11673428 45.6270624 369.6668944 24.12109375 369.5859375 C22.18831778 369.58796605 20.25554256 369.59088393 18.32276917 369.59463501 C14.30144862 369.59902062 10.28032999 369.5927495 6.2590332 369.57861328 C1.15028294 369.56151218 -3.95799458 369.57139277 -9.06672764 369.58933067 C-13.04859365 369.60026131 -17.03035077 369.59668022 -21.01222038 369.5889473 C-22.89414465 369.58697142 -24.7760794 369.58931058 -26.65799141 369.59638596 C-57.5509782 369.68710953 -83.49998586 360.76886814 -105.65625 338.87109375 C-123.0767521 320.14405399 -131.72072107 294.84384303 -131.53955078 269.54394531 C-131.53984283 268.44979309 -131.54013489 267.35564087 -131.54043579 266.22833252 C-131.53905655 262.65734572 -131.52356219 259.08657477 -131.5078125 255.515625 C-131.50407737 253.02170933 -131.50123276 250.52779218 -131.49923706 248.03387451 C-131.49164002 241.50406771 -131.4720256 234.97435139 -131.4498291 228.44458008 C-131.42818781 221.76775877 -131.42021723 215.09090912 -131.41015625 208.4140625 C-131.38877574 195.3385033 -131.35507802 182.26300649 -131.3125 169.1875 C-132.9625 169.1875 -134.6125 169.1875 -136.3125 169.1875 C-136.38965349 162.80533756 -136.44155315 156.42329873 -136.47729492 150.04077148 C-136.49222196 147.87731432 -136.51257093 145.71388655 -136.53881836 143.55053711 C-136.73792709 126.69656834 -135.82227632 111.00726466 -130.3125 94.9375 C-130.01690186 94.07036377 -129.72130371 93.20322754 -129.41674805 92.30981445 C-116.26855674 55.4530753 -89.73000369 27.98866441 -54.71044922 11.26269531 C-43.74056001 6.34400339 -32.11646531 3.31282536 -20.3125 1.1875 C-19.39670166 1.01476562 -18.48090332 0.84203125 -17.53735352 0.6640625 C-11.72173912 -0.19535754 -5.86824248 0.0029268 0 0 Z " fill="#5B4751" transform="translate(255.3125,-0.1875)"/>
<path d="M0 0 C3.98543785 0.0113742 7.97060794 0.00463455 11.95603657 -0.00688362 C40.8339953 -0.0776501 68.94746301 2.19225384 97.41748047 7.19824219 C98.2644751 7.34374512 99.11146973 7.48924805 99.98413086 7.63916016 C107.53539935 9.01795423 114.42305463 11.11947766 121.91748047 13.26074219 C121.91748047 42.96074219 121.91748047 72.66074219 121.91748047 103.26074219 C45.35748047 103.26074219 -31.20251953 103.26074219 -110.08251953 103.26074219 C-110.08251953 73.89074219 -110.08251953 44.52074219 -110.08251953 14.26074219 C-97.15085629 9.95018778 -84.38604051 6.88963529 -70.92993164 4.93261719 C-68.91077349 4.63804055 -66.89417719 4.32923638 -64.87744141 4.01855469 C-60.61967688 3.37388549 -56.35397186 2.80647251 -52.08251953 2.26074219 C-51.35383667 2.16398193 -50.62515381 2.06722168 -49.87438965 1.9675293 C-33.30169358 -0.16504928 -16.67668585 -0.04794919 0 0 Z " fill="#FEE09F" transform="translate(250.08251953125,166.7392578125)"/>
<path d="M0 0 C7.13812225 0.50752704 13.84001773 1.72163754 20.75 3.5625 C22.24273437 3.95949097 22.24273437 3.95949097 23.765625 4.36450195 C75.54161706 18.5301715 124.34476859 50.02948792 157 93 C157.41668945 93.54027832 157.83337891 94.08055664 158.26269531 94.63720703 C165.9459873 104.6322116 172.68842968 115.09209036 179 126 C179.39429199 126.67724121 179.78858398 127.35448242 180.19482422 128.05224609 C193.37711173 150.9708756 201.98260918 176.54572563 207.3125 202.375 C207.53365479 203.4410144 207.53365479 203.4410144 207.75927734 204.52856445 C210.74463787 220.17108366 211.3748098 235.80669606 211.3125 251.6875 C211.31067719 252.65489105 211.30885437 253.6222821 211.30697632 254.61898804 C211.26154826 268.95190977 210.75266072 282.89773917 208 297 C207.83902832 297.89702637 207.67805664 298.79405273 207.51220703 299.71826172 C200.47021064 338.63526965 183.83997524 373.97102118 161 406 C158.21305253 403.35149701 156.0333682 400.71616604 153.9375 397.5 C146.65638315 387.01025539 138.52835035 379.14343454 127.96875 372.05859375 C125.68560808 370.47541508 123.83756327 369.05413323 122 367 C122.98226562 365.90558594 122.98226562 365.90558594 123.984375 364.7890625 C163.50753305 319.91602398 179.76481606 261.97512613 177 203 C176.05879414 190.19711882 174.16186109 177.446235 171 165 C170.84337891 164.34999023 170.68675781 163.69998047 170.52539062 163.03027344 C164.41700644 137.85951793 153.25088406 112.96648047 138 92 C137.5767041 91.40445313 137.1534082 90.80890625 136.71728516 90.1953125 C129.2441422 79.70077548 121.01864003 70.19192394 112 61 C111.40654785 60.39333496 110.8130957 59.78666992 110.20166016 59.16162109 C96.72276749 45.51519828 80.64258667 34.42860642 64 25 C63.40783691 24.6587207 62.81567383 24.31744141 62.20556641 23.96582031 C43.1082918 13.01566834 21.62990971 5.11526491 0 1 C0 0.67 0 0.34 0 0 Z " fill="#8CB4EB" transform="translate(301,4)"/>
<path d="M0 0 C-0.91773193 0.20979492 -0.91773193 0.20979492 -1.85400391 0.42382812 C-54.95139082 12.72193822 -103.10357492 39.77597474 -136 84 C-136.42522949 84.56444824 -136.85045898 85.12889648 -137.28857422 85.71044922 C-172.0317479 131.99460793 -187.29039753 190.51018273 -180.28125 248.00390625 C-179.42913024 253.72456989 -178.25979455 259.35732119 -177 265 C-176.63299931 266.79534529 -176.26711063 268.59091827 -175.90234375 270.38671875 C-168.16581609 306.89189077 -149.64155348 338.60777975 -126 367 C-128.68345995 369.82437223 -131.37701563 372.04509989 -134.625 374.1875 C-147.02116224 382.75543566 -155.94812181 393.37319102 -164 406 C-167.79156281 402.5611407 -170.39092787 398.65435372 -173.125 394.375 C-173.84405518 393.25218628 -173.84405518 393.25218628 -174.57763672 392.10668945 C-191.58044602 365.25499867 -203.67670116 336.55546435 -210.4375 305.4375 C-210.67235107 304.35791016 -210.90720215 303.27832031 -211.14916992 302.16601562 C-214.52891452 285.59888548 -215.37869096 269.18249073 -215.3125 252.3125 C-215.31067719 251.34510895 -215.30885437 250.3777179 -215.30697632 249.38101196 C-215.26154826 235.04809023 -214.75266072 221.10226083 -212 207 C-211.75854248 205.65446045 -211.75854248 205.65446045 -211.51220703 204.28173828 C-200.68962011 144.47161096 -166.63185543 86.95754171 -118 50 C-117.45972168 49.58331055 -116.91944336 49.16662109 -116.36279297 48.73730469 C-106.3677884 41.0540127 -95.90790964 34.31157032 -85 28 C-84.32275879 27.60570801 -83.64551758 27.21141602 -82.94775391 26.80517578 C-63.6116359 15.68346945 -22.87061294 -6.51696094 0 0 Z " fill="#8CB4EB" transform="translate(215,4)"/>
<path d="M0 0 C1.84851563 0.61488281 1.84851563 0.61488281 3.734375 1.2421875 C5.40610354 1.78690803 7.07798704 2.33115312 8.75 2.875 C9.55566406 3.14441406 10.36132812 3.41382813 11.19140625 3.69140625 C25.14676406 8.19667924 38.65710285 8.27033042 53.171875 8.1953125 C55.30706652 8.19157605 57.44225976 8.18873207 59.57745361 8.18673706 C65.16032763 8.17915034 70.74309533 8.15954515 76.32592773 8.1373291 C82.03758303 8.11676307 87.74925574 8.10771247 93.4609375 8.09765625 C104.64067136 8.07629401 115.82032679 8.04221888 127 8 C126.69398491 9.60250814 126.38396874 11.20425258 126.07226562 12.80566406 C125.90005493 13.69771545 125.72784424 14.58976685 125.55041504 15.5088501 C120.00559555 40.60441536 92.60272438 62.75090285 75.2578125 79.67578125 C72.44797456 82.56826148 69.85166177 85.6084225 67.25 88.6875 C66.1891901 89.92481194 65.12798892 91.16178852 64.06640625 92.3984375 C62.17203733 94.61196321 60.30517734 96.84300481 58.46484375 99.1015625 C52.25882222 106.48917646 52.25882222 106.48917646 48.25 107.4375 C41.80119089 106.56939108 37.45100305 99.07703732 33.5 94.25 C32.88833984 93.50556641 32.27667969 92.76113281 31.64648438 91.99414062 C26.9343009 86.224021 22.3964403 80.33557432 17.9074707 74.39111328 C13.96240187 69.19136749 9.86244323 64.14140899 5.6875 59.125 C-12.79788068 36.80799369 -12.79788068 36.80799369 -12.26953125 22.7578125 C-11.28028575 12.6359672 -7.18827461 7.0827863 0 0 Z " fill="#8CB4EA" transform="translate(180,360)"/>
<path d="M0 0 C0.33 37.62 0.66 75.24 1 114 C-3.41476413 112.23409435 -7.03844063 110.19332512 -10.9375 107.5625 C-11.59282715 107.12147949 -12.2481543 106.68045898 -12.92333984 106.22607422 C-24.81208057 98.12232034 -35.6598073 88.98818614 -46 79 C-46.62084473 78.40106934 -47.24168945 77.80213867 -47.88134766 77.18505859 C-55.79017922 69.51378892 -63.29969924 61.7677359 -70 53 C-70.61359375 52.34386719 -71.2271875 51.68773437 -71.859375 51.01171875 C-73 49 -73 49 -72.37890625 46.54296875 C-60.62745673 24.8710321 -40.29414992 9.39544348 -17 2 C-11.07155433 0.41409927 -6.22991882 0 0 0 Z " fill="#ECEAED" transform="translate(124,362)"/>
<path d="M0 0 C21.14339955 0 41.47387483 10.84205789 56.43505859 25.39599609 C69.9054461 38.93887812 69.9054461 38.93887812 73 47 C72.05164549 51.18315277 69.70190156 53.73411865 66.8125 56.8125 C64.0605413 59.76687948 61.35155064 62.73975275 58.71484375 65.796875 C49.14403215 76.77087256 38.64705949 87.24037309 27 96 C26.42540039 96.43505859 25.85080078 96.87011719 25.25878906 97.31835938 C3.15849138 114 3.15849138 114 0 114 C0 76.38 0 38.76 0 0 Z " fill="#ECEAEC" transform="translate(388,362)"/>
<path d="M0 0 C6.79900936 5.00223099 10.47297487 11.07446489 11.84765625 19.359375 C13.2543301 31.6501878 8.65171312 40.23718144 1.1875 49.69287109 C-2.12593185 53.81413308 -5.49469889 57.88993366 -8.87426758 61.95703125 C-13.24442597 67.22152322 -17.4377778 72.58378493 -21.578125 78.03125 C-25.116887 82.64837134 -28.81730974 87.13650147 -32.51196289 91.62915039 C-35.74152429 95.56932633 -38.79819335 99.57464441 -41.71777344 103.75146484 C-43.15234375 105.359375 -43.15234375 105.359375 -46.65234375 106.671875 C-53.41610185 106.06796803 -57.05676547 100.49828314 -61.21875 95.61328125 C-64.12081338 92.23047202 -67.13563466 88.95114652 -70.13671875 85.65625 C-71.13445312 84.51929688 -71.13445312 84.51929688 -72.15234375 83.359375 C-72.755625 82.68390625 -73.35890625 82.0084375 -73.98046875 81.3125 C-75.15234375 79.359375 -75.15234375 79.359375 -75.01757812 77.53881836 C-73.79669417 74.46352743 -71.87136007 72.8136308 -69.48046875 70.53515625 C-68.50164225 69.58813312 -67.52322417 68.64068773 -66.54516602 67.69287109 C-66.03156525 67.20002625 -65.51796448 66.7071814 -64.98880005 66.19940186 C-55.02505596 56.60576433 -45.97600411 46.81188209 -38.15234375 35.359375 C-37.74999512 34.78574219 -37.34764648 34.21210938 -36.93310547 33.62109375 C-31.18076355 25.34740954 -27.91039465 16.94625385 -25.15234375 7.359375 C-25.81234375 7.029375 -26.47234375 6.699375 -27.15234375 6.359375 C-26.07919922 6.22982422 -26.07919922 6.22982422 -24.984375 6.09765625 C-17.76390589 5.07950472 -11.62516592 3.15852607 -4.96484375 0.1875 C-2.15234375 -0.640625 -2.15234375 -0.640625 0 0 Z " fill="#8CB4EA" transform="translate(332.15234375,360.640625)"/>
<path d="M0 0 C0.00546844 1.20458359 0.00546844 1.20458359 0.01104736 2.4335022 C0.04936833 10.10873212 0.10670234 17.78349995 0.18390274 25.45842934 C0.22293464 29.4014991 0.25533433 33.34436032 0.27099609 37.28759766 C-0.04239726 66.71030314 -0.04239726 66.71030314 7 95 C7 95.99 7 96.98 7 98 C-9.83 98 -26.66 98 -44 98 C-44 68.63 -44 39.26 -44 9 C-29.8100737 4.27002457 -15.08268638 -0.09921102 0 0 Z " fill="#F6D191" transform="translate(184,172)"/>
<path d="M0 0 C33.66 0 67.32 0 102 0 C96.19056395 29.04718023 72.36483492 50.00383637 52 70 C48.29721963 68.44259592 45.88613176 66.17238487 43.03515625 63.37109375 C42.33018005 62.67861794 42.33018005 62.67861794 41.61096191 61.97215271 C40.08729112 60.46795299 38.57364572 58.95427754 37.0625 57.4375 C36.5462204 56.92100891 36.0299408 56.40451782 35.49801636 55.87237549 C26.82489536 47.16369441 18.92914467 38.1800194 12 28 C11.59233398 27.41041504 11.18466797 26.82083008 10.76464844 26.21337891 C5.53316014 18.55685522 0 9.56371781 0 0 Z " fill="#F6D191" transform="translate(205,368)"/>
<path d="M0 0 C0 29.37 0 58.74 0 89 C-12.27659069 86.95390155 -18.66679913 84.92379418 -25.7109375 75.22265625 C-29.84390812 68.09641297 -30.45634946 62.61414091 -30.43359375 54.44140625 C-30.4388356 53.33828598 -30.44407745 52.23516571 -30.44947815 51.09861755 C-30.45588218 48.77302896 -30.45458242 46.44740791 -30.44604492 44.12182617 C-30.4375357 40.57737158 -30.46632013 37.03453001 -30.49804688 33.49023438 C-30.49965917 31.22395881 -30.49908082 28.95768042 -30.49609375 26.69140625 C-30.50732773 25.63909317 -30.51856171 24.58678009 -30.53013611 23.50257874 C-30.46448629 16.51934786 -29.51667017 10.69397006 -24.55271912 5.47975159 C-16.317864 -1.70518155 -12.49292455 0 0 0 Z " fill="#EFC382" transform="translate(124,169)"/>
<path d="M0 0 C18.74794521 0 18.74794521 0 24.515625 5.42578125 C28.4990983 9.85567828 30.22853229 14.16473227 30.32226562 20.05883789 C30.34148071 21.04078629 30.3606958 22.02273468 30.38049316 23.03443909 C30.38899292 24.08655075 30.39749268 25.13866241 30.40625 26.22265625 C30.41765015 27.31911972 30.42905029 28.41558319 30.4407959 29.54527283 C30.45967021 31.86599893 30.47275368 34.18677833 30.48046875 36.50756836 C30.49980059 40.0262047 30.56182896 43.54246262 30.625 47.06054688 C30.84633083 70.4359355 30.84633083 70.4359355 21.99023438 80.22045898 C15.42436636 86.70468335 8.99784498 87.87526938 0 89 C0 59.63 0 30.26 0 0 Z " fill="#F6D191" transform="translate(388,169)"/>
<path d="M0 0 C19.14 0 38.28 0 58 0 C58 11.88 58 23.76 58 36 C38.86 36 19.72 36 0 36 C0 24.12 0 12.24 0 0 Z " fill="#FBDD9E" transform="translate(227,317)"/>
<path d="M0 0 C19.47 0 38.94 0 59 0 C59 11.88 59 23.76 59 36 C36.85720479 33.98701862 18.07877245 24.10497212 3.75 7 C0 2.31914894 0 2.31914894 0 0 Z " fill="#A4CBFD" transform="translate(153,317)"/>
<path d="M0 0 C19.47 0 38.94 0 59 0 C50.93204875 16.1359025 36.16487087 25.40546745 20 32 C19.154375 32.34933594 18.30875 32.69867188 17.4375 33.05859375 C11.4370054 35.29806406 6.75040984 35.38632638 0 36 C0 24.12 0 12.24 0 0 Z " fill="#A4CCFD" transform="translate(300,317)"/>
<path d="M0 0 C23.76 0 47.52 0 72 0 C70 10 70 10 67 17 C44.89 17 22.78 17 0 17 C0 11.39 0 5.78 0 0 Z " fill="#FDDF9F" transform="translate(300,285)"/>
<path d="M0 0 C23.76 0 47.52 0 72 0 C72 5.61 72 11.22 72 17 C49.89 17 27.78 17 5 17 C1 7 1 7 0 0 Z " fill="#F5D090" transform="translate(140,285)"/>
<path d="M0 0 C19.14 0 38.28 0 58 0 C58 5.61 58 11.22 58 17 C38.86 17 19.72 17 0 17 C0 11.39 0 5.78 0 0 Z " fill="#FDDF9F" transform="translate(227,285)"/>
<path d="M0 0 C3.04538186 2.03025457 6.09037949 4.06119563 9.12109375 6.11328125 C19.99932117 13.3269939 31.06169302 18.91990656 43.5 22.9375 C44.14630371 23.14922852 44.79260742 23.36095703 45.45849609 23.57910156 C49.73538954 24.87956075 53.54593353 25.18941262 58 25 C58 26.98 58 28.96 58 31 C38.86 31 19.72 31 0 31 C0 20.77 0 10.54 0 0 Z " fill="#F7D291" transform="translate(227,322)"/>
<path d="M0 0 C19.47 0 38.94 0 59 0 C59 11.88 59 23.76 59 36 C56.36 35.67 53.72 35.34 51 35 C51.1134375 34.16597656 51.226875 33.33195312 51.34375 32.47265625 C51.52563934 28.50292131 51.35290667 25.75760286 50 22 C46.08023919 18.31282305 40.81943387 16.31998042 36.01025391 14.03955078 C30.83016341 11.36080105 26.54768106 7.21527129 22.171875 3.41040039 C19.60781877 1.74532026 18.26146623 1.64881796 15.234375 1.70703125 C14.34492188 1.71669922 13.45546875 1.72636719 12.5390625 1.73632812 C11.15847656 1.7740332 11.15847656 1.7740332 9.75 1.8125 C8.34621094 1.83280273 8.34621094 1.83280273 6.9140625 1.85351562 C4.60878673 1.88880046 2.3046894 1.93809719 0 2 C0 1.34 0 0.68 0 0 Z " fill="#F5D192" transform="translate(153,317)"/>
<path d="M0 0 C19.47 0 38.94 0 59 0 C58.67 0.66 58.34 1.32 58 2 C57.44127197 1.95810547 56.88254395 1.91621094 56.30688477 1.87304688 C45.46968215 0.81416264 45.46968215 0.81416264 35.23046875 3.4296875 C33.20892035 5.36444994 33.20892035 5.36444994 31.34765625 7.5625 C28.17995831 10.85142432 24.57365286 13.01548834 20.6875 15.375 C19.64480957 16.01767822 19.64480957 16.01767822 18.58105469 16.67333984 C13.44727648 19.80731783 13.44727648 19.80731783 10.81469727 20.94140625 C10.21584717 21.29074219 9.61699707 21.64007813 9 22 C8.29327794 25.10930941 8.29327794 25.10930941 8.25 28.625 C8.19328125 29.81351562 8.1365625 31.00203125 8.078125 32.2265625 C8.05234375 33.14179688 8.0265625 34.05703125 8 35 C5.36 35.33 2.72 35.66 0 36 C0 24.12 0 12.24 0 0 Z " fill="#FEE0A0" transform="translate(300,317)"/>
<path d="M0 0 C0.99966797 0.19916016 0.99966797 0.19916016 2.01953125 0.40234375 C20.61673016 3.96572312 39.45197783 4.01331474 58 0 C58 1.98 58 3.96 58 6 C38.86 6 19.72 6 0 6 C0 4.02 0 2.04 0 0 Z " fill="#F0C382" transform="translate(227,347)"/>
<path d="M0 0 C2.1953125 0.03515625 2.1953125 0.03515625 5.6953125 0.84765625 C4.65764199 6.91497677 3.35569349 12.28504145 0.6953125 17.84765625 C-3.5946875 17.84765625 -7.8846875 17.84765625 -12.3046875 17.84765625 C-4.14269373 1.52366871 -4.14269373 1.52366871 0 0 Z " fill="#A4CAFA" transform="translate(366.3046875,284.15234375)"/>
<path d="M0 0 C4.9044496 -1.13853294 4.9044496 -1.13853294 8 0 C12.2063916 5.16638689 15.02940039 11.05880079 18 17 C13.71 17 9.42 17 5 17 C2.55411563 11.24033681 0.54223314 6.23568111 0 0 Z " fill="#A4CAFA" transform="translate(140,285)"/>
<path d="M0 0 C19.47 0 38.94 0 59 0 C58.67 0.66 58.34 1.32 58 2 C39.19 1.67 20.38 1.34 1 1 C1.33 8.59 1.66 16.18 2 24 C3.98 23.34 5.96 22.68 8 22 C8 26.29 8 30.58 8 35 C5.36 35.33 2.72 35.66 0 36 C0 24.12 0 12.24 0 0 Z " fill="#D3B58B" transform="translate(300,317)"/>
<path d="M0 0 C19.47 0 38.94 0 59 0 C59 11.88 59 23.76 59 36 C56.69 35.67 54.38 35.34 52 35 C52 31.04 52 27.08 52 23 C53.98 23.66 55.96 24.32 58 25 C58 17.08 58 9.16 58 1 C29.29 1.495 29.29 1.495 0 2 C0 1.34 0 0.68 0 0 Z " fill="#CFB085" transform="translate(153,317)"/>
<path d="M0 0 C3.96 0 7.92 0 12 0 C12 5.28 12 10.56 12 16 C7.58972148 14.89743037 7.05958713 14.10925626 4.8046875 10.38867188 C4.45664063 9.78603516 4.10859375 9.18339844 3.75 8.5625 C3.38648438 7.96373047 3.02296875 7.36496094 2.6484375 6.74804688 C0 2.30245536 0 2.30245536 0 0 Z " fill="#FEE09F" transform="translate(199,286)"/>
<path d="M0 0 C10.46630933 0.44637458 20.67716783 1.1214634 31 3 C31 3.33 31 3.66 31 4 C23.53190979 5.19258032 17.23422461 4.6594104 9.875 3.0625 C8.91851562 2.86720703 7.96203125 2.67191406 6.9765625 2.47070312 C4.64802948 1.99335386 2.32309551 1.50302744 0 1 C0 0.67 0 0.34 0 0 Z " fill="#96BBED" transform="translate(270,0)"/>
<path d="M0 0 C6.75 -0.125 6.75 -0.125 9 1 C9 1.66 9 2.32 9 3 C6.03 3.66 3.06 4.32 0 5 C0 3.35 0 1.7 0 0 Z " fill="#8BB1E5" transform="translate(308,347)"/>
<path d="M0 0 C0 1.32 0 2.64 0 4 C-3.3 3.34 -6.6 2.68 -10 2 C-10 1.34 -10 0.68 -10 0 C-6.30581799 -1.231394 -3.7943739 -0.64432764 0 0 Z " fill="#8AAEE2" transform="translate(204,348)"/>
<path d="M0 0 C0 0.33 0 0.66 0 1 C-2.66440231 1.53590819 -5.33036648 2.05389262 -8 2.5625 C-8.74378906 2.71396484 -9.48757812 2.86542969 -10.25390625 3.02148438 C-15.48302996 3.99910316 -19.75330671 3.90028487 -25 3 C-25 2.67 -25 2.34 -25 2 C-22.14633646 1.66178803 -19.29219404 1.3293022 -16.4375 1 C-15.63763672 0.90460937 -14.83777344 0.80921875 -14.01367188 0.7109375 C-9.30547833 0.17285824 -4.73852735 -0.10176703 0 0 Z " fill="#95BCEF" transform="translate(241,0)"/>
<path d="M0 0 C2.97 0 5.94 0 9 0 C5.31265242 2.45823172 2.30300029 3.01242616 -2 4 C-1.34 2.68 -0.68 1.36 0 0 Z " fill="#9FC4F5" transform="translate(215,3)"/>
</svg>
